Coordinates
version=1
nRows=6
nColumns=46
inDegrees=yes

Units are S.I. units (second, meters, Newtons, ...)
Angles are in degrees.

endheader
time	pelvis_tilt	pelvis_list	pelvis_rotation	pelvis_tx	pelvis_ty	pelvis_tz	bb_angle	bb_tx	bb_ty	bb_tz	hip_flexion_r	hip_adduction_r	hip_rotation_r	knee_angle_r	knee_angle_r_beta	ankle_angle_r	subtalar_angle_r	mtp_angle_r	crank_angle_r	hip_flexion_l	hip_adduction_l	hip_rotation_l	knee_angle_l	knee_angle_l_beta	ankle_angle_l	subtalar_angle_l	mtp_angle_l	crank_angle_l	lumbar_extension	lumbar_bending	lumbar_rotation	arm_flex_r	arm_add_r	arm_rot_r	elbow_flex_r	pro_sup_r	wrist_flex_r	wrist_dev_r	arm_flex_l	arm_add_l	arm_rot_l	elbow_flex_l	pro_sup_l	wrist_flex_l	wrist_dev_l
      2.50000000	    -23.69127129	     -7.61634118	    -14.16435751	      0.28082676	      1.23764342	     -0.24884266	      0.00000000	      0.50000000	      0.00000000	      0.25000000	     65.54080135	      9.10103475	      0.33763555	     76.98797479	      1.34369364	     23.73351355	      5.21112001	      0.00000000	      0.00000000	     27.47174798	    -13.10520162	     -2.03286468	     36.73008952	      0.64106100	    -16.64229895	    -16.86721451	      0.00000000	      0.00000000	    -65.06271371	      8.03341092	     11.46963859	     71.52017999	      0.65032479	     27.83976613	     67.21556920	     51.65074589	      0.00000000	      0.00000000	     54.53262658	    -18.89549646	      7.38121654	     70.34122071	     54.39515003	      0.00000000	      0.00000000
      2.50500000	    -23.79748814	     -7.25831077	    -13.82901499	      0.28001960	      1.23534887	     -0.25016054	      0.00000000	      0.50000000	      0.00000000	      0.25000000	     65.39946711	      8.49742186	      0.25180271	     75.90506412	      1.32479329	     23.73658314	      5.10655654	      0.00000000	      0.00000000	     28.59510492	    -12.52090681	     -1.51403611	     38.99893565	      0.68065983	    -15.53643262	    -17.46094116	      0.00000000	      0.00000000	    -65.10720856	      8.31532748	     11.36786916	     71.19188242	      0.71312658	     27.17305397	     68.63926145	     51.78980393	      0.00000000	      0.00000000	     54.48346460	    -18.94605764	      7.53530460	     70.88485869	     54.53536322	      0.00000000	      0.00000000
      2.51000000	    -23.72176981	     -6.74149779	    -13.62326378	      0.27935110	      1.23319650	     -0.25128871	      0.00000000	      0.50000000	      0.00000000	      0.25000000	     65.08250784	      8.03227394	      0.56546461	     74.84326655	      1.30626142	     23.73074739	      4.84792450	      0.00000000	      0.00000000	     29.47367981	    -11.81454189	     -1.30886532	     41.18102693	      0.71874451	    -14.48829373	    -18.07800385	      0.00000000	      0.00000000	    -65.25151114	      8.43836747	     11.31325888	     71.05379290	      0.79174080	     26.68689756	     69.52854149	     51.86966045	      0.00000000	      0.00000000	     54.57041245	    -18.96341586	      7.67144034	     71.25160374	     54.62586757	      0.00000000	      0.00000000
      2.51500000	    -24.03677851	     -6.45793247	    -13.19085484	      0.27841790	      1.23025945	     -0.25248969	      0.00000000	      0.50000000	      0.00000000	      0.25000000	     65.13600198	      7.54015431	      0.50165868	     73.75306632	      1.28723384	     23.54152969	      4.37999180	      0.00000000	      0.00000000	     31.00752434	    -11.35897447	     -0.77317957	     43.66276335	      0.76205898	    -13.42383784	    -18.24709603	      0.00000000	      0.00000000	    -65.06522402	      8.87122635	     11.52554080	     70.37240189	      0.85640336	     25.44895617	     71.46130789	     52.02614057	      0.00000000	      0.00000000	     54.42496694	    -19.03096308	      8.15936366	     72.07800162	     54.85427927	      0.00000000	      0.00000000
      2.52000000	    -24.12251814	     -5.99783287	    -12.92212336	      0.27769871	      1.22754653	     -0.25362808	      0.00000000	      0.50000000	      0.00000000	      0.25000000	     64.92508885	      7.23730515	      0.96583844	     72.59890345	      1.26708990	     23.37767930	      3.68754919	      0.00000000	      0.00000000	     32.21024537	    -10.73896237	     -0.56564906	     46.02986562	      0.80337271	    -12.60223666	    -18.76349240	      0.00000000	      0.00000000	    -64.99075626	      9.02265764	     11.71037543	     69.85356267	      0.86696519	     24.17536254	     73.18920405	     52.13802547	      0.00000000	      0.00000000	     54.49356398	    -18.95334779	      8.72263991	     72.61755177	     55.04394861	      0.00000000	      0.00000000
      2.52500000	    -23.99900466	     -5.56136688	    -12.65607144	      0.27703212	      1.22508466	     -0.25470168	      0.00000000	      0.50000000	      0.00000000	      0.25000000	     64.47296759	      6.93714766	      1.50076189	     71.46275665	      1.24726040	     23.19340621	      3.30786700	      0.00000000	      0.00000000	     33.16823303	    -10.10170285	     -0.41339773	     48.34512929	      0.84378168	    -11.85307936	    -19.39099087	      0.00000000	      0.00000000	    -65.10366704	      9.10309896	     11.72150432	     69.78589849	      0.86221812	     23.59907275	     73.90091480	     52.17681716	      0.00000000	      0.00000000	     54.68553152	    -18.84207222	      9.07425821	     72.82645865	     55.13219520	      0.00000000	      0.00000000
